<svg xmlns="http://www.w3.org/2000/svg" width="18.696" height="18.698" viewBox="0 0 18.696 18.698"><defs><style>.a{fill:#8b8d8f;}</style></defs><g transform="translate(0 0)"><path class="a" d="M9.348,18.7a9.349,9.349,0,0,1-6.61-15.96A9.349,9.349,0,0,1,15.958,15.96,9.287,9.287,0,0,1,9.348,18.7ZM4.669,3.858a.8.8,0,0,0-.81.791v9.4a.8.8,0,0,0,.81.792h9.358a.8.8,0,0,0,.813-.792v-9.4a.8.8,0,0,0-.813-.791Zm5.1,9.359H8.137V7.975H9.7v.716h.022a1.718,1.718,0,0,1,1.541-.846c1.717,0,1.954,1.2,1.954,2.5v2.874H11.588V10.667c0-.586,0-1.389-.846-1.389-.861,0-.978.68-.978,1.346v2.593Zm-2.649,0H5.487V7.975H7.115v5.241ZM6.3,7.259a.945.945,0,1,1,.944-.945A.946.946,0,0,1,6.3,7.259Z" transform="translate(0 0)"/></g></svg>