   <svg xmlns="http://www.w3.org/2000/svg" xmlns:xlink="http://www.w3.org/1999/xlink" width="32" height="32" viewBox="0 0 32 32"><defs><style>.a{fill:none;}.b{fill:#fff;stroke:#707070;opacity:0;}.c{clip-path:url(#a);}.d{fill:#d53127;}.e{fill:#f47320;}.f{clip-path:url(#b);}.g{fill:url(#c);}.h{stroke:none;}</style><clipPath id="a"><rect class="a" width="21.222" height="27.846"/></clipPath><clipPath id="b"><path class="a" d="M31.3,29.618h2.638c.485.03,1.364.819,1.091,2.243l7.943-3.911c-.485-5.548-4.457-5.76-4.457-5.76L33.483,22.1Z" transform="translate(-31.3 -22.1)"/></clipPath><linearGradient id="c" x1="-0.516" y1="1.619" x2="-0.496" y2="1.619" gradientUnits="objectBoundingBox"><stop offset="0" stop-color="#f47320"/><stop offset="0.41" stop-color="#f47320"/><stop offset="0.5" stop-color="#f16d21"/><stop offset="0.62" stop-color="#e95c22"/><stop offset="0.75" stop-color="#dc4125"/><stop offset="0.81" stop-color="#d53127"/><stop offset="1" stop-color="#d53127"/></linearGradient></defs><g class="b"><rect class="h" width="32" height="32"/><rect class="a" x="0.5" y="0.5" width="31" height="31"/></g><g transform="translate(16 16)"><g transform="translate(-10.611 -13.923)"><g class="c"><path class="d" d="M1.354,21.9H5.325L2.233,29.418A2.275,2.275,0,0,1,.141,27.994a2.243,2.243,0,0,1-.03-1.3Z" transform="translate(-0.02 -15.261)"/><path class="e" d="M17.931,6.791,12.9,6.7,14.02,2.971A2.3,2.3,0,0,0,11.837,0H7.229L1.985,18.887S.1,26.982,7.229,27.709c0,0,11.308,2.3,14.916-11.338,0,0,1.91-8.246-4.214-9.58m-3.456,9.368s-.212,3.486-2.819,4.093A1.7,1.7,0,0,1,10.5,20.13a1.523,1.523,0,0,1-.819-1.576,2.971,2.971,0,0,1,.121-.788l.97-3.638h2.638a1.783,1.783,0,0,1,1.061,2" transform="translate(-1.227)"/></g><g class="f" transform="translate(9.489 6.7)"><rect class="g" width="15.098" height="14.543" transform="matrix(0.838, -0.546, 0.546, 0.838, -4.461, 2.899)"/></g></g></g></svg>
